<!DOCTYPE svg PUBLIC "-//W3C//DTD SVG 1.1//EN" "http://www.w3.org/Graphics/SVG/1.1/DTD/svg11.dtd"><svg xmlns="http://www.w3.org/2000/svg" xmlns:xlink="http://www.w3.org/1999/xlink" xmlns:xodm="http://www.corel.com/coreldraw/odm/2003" xml:space="preserve" width="210mm" height="74.93mm" version="1.1" style="shape-rendering:geometricPrecision; text-rendering:geometricPrecision; image-rendering:optimizeQuality; fill-rule:evenodd; clip-rule:evenodd" viewBox="0 0 21000 7492.7"><defs><style type="text/css"><![CDATA[
    .fil1 {fill:#6B7449}
    .fil0 {fill:#BAB99A}
    .fil2 {fill:#DBBBA2}
    .fil3 {fill:#373435;fill-rule:nonzero}
   ]]></style></defs><g id="Camada_x0020_1"><metadata id="CorelCorpID_0Corel-Layer"/><g id="_1422688978352"><g><path class="fil0" d="M7872.23 4833.7l922.53 0 0 -2165.94 -922.53 0 0 2165.94zm197.78 -211.49l0 -1739.97 34.8 0 228.69 1384.51 228.68 -1384.51 34.8 0 0 1739.97 -87 0 0 -1210.52 -159.08 961.96 -34.81 0 -159.07 -961.96 0 1210.52 -87.01 0z"/><path class="fil1" d="M7872.23 2216.52l922.53 0 0 -2165.94 -922.53 0 0 2165.94zm261.18 -221.67l193.88 -1739.97 34.8 0 171.51 1739.97 -87 0 -52.19 -571.7 -164.06 0 -62.14 571.7 -34.8 0zm101.91 -608.99l156.6 0 -69.6 -773.05 -87 773.05z"/><path class="fil2" d="M7872.23 7450.88l922.53 0 0 -2165.94 -922.53 0 0 2165.94zm653.92 -1941.28l0 37.28 -298.28 0 0 755.65 248.56 0 0 37.28 -248.56 0 0 872.47 298.28 0 0 37.29 -385.29 0 0 -1739.97 385.29 0z"/><path class="fil3" d="M9167.78 5669.84c0,-105.49 63.21,-158.24 189.63,-158.24 126.43,0 189.64,55.26 189.64,165.78l0 351.64 -87.91 0 0 -349.13c0,-48.56 -6.7,-84.15 -20.1,-106.75 -13.39,-22.6 -40.18,-33.91 -80.37,-33.91 -40.19,0 -67.4,11.31 -81.63,33.91 -14.24,22.6 -21.35,58.19 -21.35,106.75l0 301.41c0,63.63 8.37,110.52 25.11,140.66 23.45,45.21 52.33,86.24 86.66,123.08 34.33,36.84 60.7,67.4 79.12,91.67 18.42,24.28 35.16,52.34 50.24,84.15 33.49,70.33 50.23,153.22 50.23,248.66l0 469.71c0,105.49 -63.21,158.24 -189.64,158.24 -126.42,0 -189.63,-55.26 -189.63,-165.79l0 -349.13 87.91 0 0 346.63c0,48.56 6.7,84.14 20.09,106.75 13.4,22.6 40.19,33.9 80.38,33.9 40.18,0 67.4,-11.3 81.63,-33.9 14.23,-22.61 21.35,-58.19 21.35,-106.75l0 -439.56c0,-95.45 -8.37,-162.43 -25.12,-200.94 -23.44,-56.94 -52.32,-104.66 -86.65,-143.17 -34.33,-38.52 -60.7,-68.66 -79.12,-90.43 -18.43,-21.77 -35.17,-45.21 -50.24,-70.32 -33.49,-58.62 -50.23,-122.25 -50.23,-190.9l0 -324.02zm1064.97 -143.17c112.2,6.7 168.29,58.61 168.29,155.73l0 575.2c0,107.17 -61.12,160.75 -183.36,160.75l-108 0 0 866.56 -87.92 0 0 -1758.24 210.99 0zm-123.07 37.68l0 818.83 108 0c40.19,0 66.15,-10.04 77.86,-30.14 11.73,-20.09 17.59,-54.42 17.59,-102.98l0 -560.13c0,-45.2 -6.7,-76.6 -20.09,-94.19 -13.4,-17.58 -36.85,-28.04 -70.34,-31.39l-113.02 0zm1160.43 -37.68l0 37.68 -301.42 0 0 763.57 251.17 0 0 37.68 -251.17 0 0 881.63 301.42 0 0 37.68 -389.33 0 0 -1758.24 389.33 0zm477.22 140.66c0,-103.82 63.21,-155.73 189.64,-155.73 126.42,0 189.64,53.58 189.64,160.75l0 356.67 -87.91 0 0 -346.62c0,-50.23 -5.86,-84.98 -17.59,-104.24 -11.71,-19.25 -37.67,-28.88 -77.86,-28.88 -40.18,0 -68.24,8.79 -84.14,26.37 -15.91,17.59 -23.86,50.65 -23.86,99.22l0 1454.31c0,48.56 5.85,82.89 17.58,102.98 11.72,20.09 37.68,30.14 77.86,30.14 40.19,0 68.24,-9.21 84.15,-27.63 15.91,-18.42 23.86,-51.91 23.86,-100.47l0 -351.65 87.91 0 0 359.19c0,103.82 -63.22,155.73 -189.64,155.73 -126.43,0 -189.64,-53.59 -189.64,-160.76l0 -1469.38zm944.42 -140.66l0 1758.24 -87.92 0 0 -1758.24 87.92 0zm477.22 1758.24l195.92 -1758.24 35.16 0 173.32 1758.24 -87.92 0 -52.74 -577.71 -165.78 0 -62.79 577.71 -35.17 0zm102.99 -615.39l158.24 0 -70.33 -781.15 -87.91 781.15zm771.1 -1142.85l87.91 0 0 1720.56 243.65 0 0 37.68 -331.56 0 0 -1758.24zm889.16 0l0 1758.24 -87.91 0 0 -1758.24 87.91 0zm509.88 0l356.68 0 -293.88 1720.56 296.38 0 0 37.68 -389.32 0 291.37 -1720.56 -261.23 0 0 -37.68zm836.41 1758.24l195.92 -1758.24 35.16 0 173.31 1758.24 -87.91 0 -52.75 -577.71 -165.77 0 -62.79 577.71 -35.17 0zm102.99 -615.39l158.24 0 -70.34 -781.15 -87.9 781.15zm982.09 -1142.85c112.19,6.7 168.28,58.61 168.28,155.73l0 1441.75c0,107.17 -61.12,160.76 -183.35,160.76l-195.92 0 0 -1758.24 210.99 0zm-123.08 37.68l0 1685.39 108.01 0c40.19,0 66.14,-10.05 77.86,-30.14 11.72,-20.09 17.59,-54.42 17.59,-102.98l0 -1426.69c0,-45.2 -6.71,-76.6 -20.1,-94.19 -13.39,-17.58 -36.84,-28.04 -70.33,-31.39l-113.03 0zm1147.86 1577.39c0,103.82 -63.21,155.73 -189.63,155.73 -126.43,0 -189.64,-53.59 -189.64,-160.76l0 -1469.38c0,-103.82 63.21,-155.73 189.64,-155.73 126.42,0 189.63,53.58 189.63,160.75l0 1469.39zm-87.9 -1459.34c0,-50.23 -5.87,-84.98 -17.59,-104.24 -11.71,-19.25 -37.67,-28.88 -77.86,-28.88 -40.19,0 -68.24,8.79 -84.14,26.37 -15.92,17.59 -23.87,50.65 -23.87,99.22l0 1454.31c0,48.56 5.86,82.89 17.58,102.98 11.72,20.09 37.68,30.14 77.87,30.14 40.19,0 68.24,-9.21 84.14,-27.63 15.92,-18.42 23.87,-51.91 23.87,-100.47l0 -1451.8z"/><path class="fil3" d="M9539.32 4486.8c0,103.82 -63.22,155.73 -189.64,155.73 -126.42,0 -189.64,-53.59 -189.64,-160.76l0 -1610.03 87.92 0 0 1602.5c0,48.56 5.85,82.89 17.58,102.98 11.72,20.1 37.68,30.14 77.86,30.14 40.19,0 68.24,-9.21 84.15,-27.62 15.91,-18.43 23.86,-51.91 23.86,-100.48l0 -1607.52 87.91 0 0 1615.06zm477.22 -1615.06l87.92 0 0 1720.56 243.64 0 0 37.67 -331.56 0 0 -1758.23zm801.25 0l399.38 0 0 37.67 -155.74 0 0 1720.56 -87.9 0 0 -1720.56 -155.74 0 0 -37.67zm964.52 0l0 1758.23 -87.92 0 0 -1758.23 87.92 0zm477.22 0l399.38 0 0 37.67 -155.74 0 0 1720.56 -87.9 0 0 -1720.56 -155.74 0 0 -37.67zm1265.93 0l0 37.67 -301.41 0 0 763.57 251.17 0 0 37.69 -251.17 0 0 881.63 301.41 0 0 37.67 -389.32 0 0 -1758.23 389.32 0zm688.22 0c112.2,6.69 168.29,58.6 168.29,155.72l0 555.11c0,73.67 -27.63,121.39 -82.89,143.16 55.26,23.45 82.89,68.66 82.89,135.64l0 768.6 -87.91 0 0 -758.55c0,-45.21 -6.7,-76.61 -20.09,-94.2 -13.4,-17.58 -36.85,-28.04 -70.34,-31.4l-113.02 0 0 884.15 -87.92 0 0 -1758.23 210.99 0zm-123.07 37.67l0 798.74 108 0c40.19,0 66.15,-10.04 77.86,-30.14 11.72,-20.09 17.59,-54.42 17.59,-102.98l0 -540.03c0,-45.21 -6.7,-76.61 -20.09,-94.19 -13.4,-17.58 -36.85,-28.05 -70.34,-31.4l-113.02 0zm768.58 1720.56l195.92 -1758.23 35.16 0 173.32 1758.23 -87.92 0 -52.74 -577.7 -165.78 0 -62.79 577.7 -35.17 0zm102.99 -615.38l158.24 0 -70.33 -781.16 -87.91 781.16zm982.09 -1142.85c112.19,6.69 168.28,58.6 168.28,155.72l0 575.2c0,107.17 -61.11,160.75 -183.35,160.75l-108.01 0 0 866.56 -87.91 0 0 -1758.23 210.99 0zm-123.08 37.67l0 818.84 108.01 0c40.19,0 66.15,-10.05 77.86,-30.14 11.72,-20.1 17.59,-54.43 17.59,-102.98l0 -560.13c0,-45.21 -6.71,-76.61 -20.1,-94.19 -13.39,-17.58 -36.84,-28.05 -70.33,-31.4l-113.03 0zm1160.43 -37.67l0 37.67 -301.41 0 0 763.57 251.17 0 0 37.69 -251.17 0 0 881.63 301.41 0 0 37.67 -389.33 0 0 -1758.23 389.33 0zm-344.11 -75.36l150.71 -258.71 150.7 258.71 -30.15 0 -120.55 -188.38 -120.57 188.38 -30.14 0zm1200.61 1690.42c0,103.82 -63.21,155.73 -189.63,155.73 -126.43,0 -189.64,-53.59 -189.64,-160.76l0 -1610.03 87.91 0 0 1602.5c0,48.56 5.86,82.89 17.58,102.98 11.72,20.1 37.68,30.14 77.87,30.14 40.19,0 68.24,-9.21 84.14,-27.62 15.92,-18.43 23.87,-51.91 23.87,-100.48l0 -1607.52 87.9 0 0 1615.06zm477.23 -1615.06l399.38 0 0 37.67 -155.74 0 0 1720.56 -87.91 0 0 -1720.56 -155.73 0 0 -37.67zm964.52 0l0 1758.23 -87.92 0 0 -1758.23 87.92 0zm477.22 140.66c0,-103.83 63.21,-155.74 189.64,-155.74 126.42,0 189.64,53.59 189.64,160.76l0 356.66 -87.91 0 0 -346.62c0,-50.23 -5.87,-84.98 -17.59,-104.23 -11.71,-19.26 -37.67,-28.89 -77.86,-28.89 -40.18,0 -68.24,8.79 -84.14,26.37 -15.91,17.59 -23.86,50.65 -23.86,99.22l0 1454.31c0,48.56 5.85,82.89 17.58,102.98 11.72,20.1 37.68,30.14 77.86,30.14 40.19,0 68.24,-9.21 84.15,-27.62 15.91,-18.43 23.86,-51.91 23.86,-100.48l0 -351.65 87.91 0 0 359.19c0,103.82 -63.22,155.73 -189.64,155.73 -126.43,0 -189.64,-53.59 -189.64,-160.76l0 -1469.37zm1235.78 1474.4c0,103.82 -63.22,155.73 -189.64,155.73 -126.43,0 -189.64,-53.59 -189.64,-160.76l0 -1469.37c0,-103.83 63.21,-155.74 189.64,-155.74 126.42,0 189.64,53.59 189.64,160.76l0 1469.38zm-87.91 -1459.34c0,-50.23 -5.87,-84.98 -17.59,-104.23 -11.71,-19.26 -37.67,-28.89 -77.86,-28.89 -40.18,0 -68.24,8.79 -84.14,26.37 -15.91,17.59 -23.86,50.65 -23.86,99.22l0 1454.31c0,48.56 5.85,82.89 17.58,102.98 11.72,20.1 37.68,30.14 77.86,30.14 40.19,0 68.24,-9.21 84.15,-27.62 15.91,-18.43 23.86,-51.91 23.86,-100.48l0 -1451.8z"/><path class="fil3" d="M9102.97 216.8l399.37 0 0 37.67 -155.73 0 0 1720.56 -87.91 0 0 -1720.56 -155.73 0 0 -37.67zm1265.93 0l0 37.67 -301.42 0 0 763.58 251.18 0 0 37.68 -251.18 0 0 881.63 301.42 0 0 37.67 -389.33 0 0 -1758.23 389.33 0zm477.22 1758.23l0 -1758.23 35.17 0 266.25 1235.78 0 -1235.78 87.91 0 0 1758.23 -87.91 0 0 -354.16 -213.5 -994.66 0 1348.82 -87.92 0zm1077.55 -1758.23c112.19,6.69 168.28,58.6 168.28,155.72l0 1441.76c0,107.17 -61.11,160.75 -183.35,160.75l-195.92 0 0 -1758.23 210.99 0zm-123.08 37.67l0 1685.39 108.01 0c40.19,0 66.15,-10.04 77.86,-30.14 11.72,-20.09 17.59,-54.42 17.59,-102.98l0 -1426.68c0,-45.21 -6.71,-76.6 -20.09,-94.19 -13.4,-17.58 -36.85,-28.05 -70.34,-31.4l-113.03 0zm856.5 -37.67l0 1758.23 -87.91 0 0 -1758.23 87.91 0zm477.23 1758.23l0 -1758.23 35.17 0 231.08 1399.05 231.08 -1399.05 35.17 0 0 1758.23 -87.92 0 0 -1223.23 -160.75 972.06 -35.16 0 -160.76 -972.06 0 1223.23 -87.91 0zm1399.05 -1758.23l0 37.67 -301.41 0 0 763.58 251.17 0 0 37.68 -251.17 0 0 881.63 301.41 0 0 37.67 -389.33 0 0 -1758.23 389.33 0zm477.23 1758.23l0 -1758.23 35.16 0 266.25 1235.78 0 -1235.78 87.92 0 0 1758.23 -87.92 0 0 -354.16 -213.5 -994.66 0 1348.82 -87.91 0zm866.55 -1758.23l399.38 0 0 37.67 -155.74 0 0 1720.56 -87.9 0 0 -1720.56 -155.74 0 0 -37.67zm1255.88 1615.07c0,103.81 -63.21,155.72 -189.64,155.72 -126.42,0 -189.64,-53.58 -189.64,-160.75l0 -1469.38c0,-103.83 63.22,-155.74 189.64,-155.74 126.43,0 189.64,53.59 189.64,160.76l0 1469.39zm-87.91 -1459.35c0,-50.23 -5.86,-84.98 -17.58,-104.23 -11.72,-19.26 -37.68,-28.88 -77.86,-28.88 -40.19,0 -68.24,8.79 -84.15,26.36 -15.91,17.59 -23.86,50.66 -23.86,99.22l0 1454.31c0,48.56 5.86,82.89 17.58,102.98 11.72,20.1 37.68,30.14 77.87,30.14 40.18,0 68.24,-9.2 84.14,-27.62 15.91,-18.43 23.86,-51.91 23.86,-100.48l0 -1451.8z"/></g><path class="fil1" d="M2033.95 5628.1l219.35 0 0 218.33 0 0.1 0.01 0c29.05,766.92 666.03,1386.03 1439.69,1386.03 773.66,0 1410.64,-619.12 1439.68,-1386.03l0.01 0 0 -0.1 0 -218.33 219.35 0 0 1822.78 -3318.09 0 0 -1822.78z"/><path class="fil1" d="M-7.13 3750.74c0,-912.47 746.56,-1659.04 1659.04,-1659.04l163.73 0 0 218.32 -163.73 0c-792.4,0 -1440.73,648.33 -1440.73,1440.73 0,792.4 648.33,1440.72 1440.73,1440.72l163.73 0 0 218.32 -163.73 0c-912.48,0 -1659.04,-746.57 -1659.04,-1659.05z"/><path class="fil1" d="M5352.04 2091.7l382.04 0c912.9,0 1659.05,746.15 1659.05,1659.05 0,912.89 -746.15,1659.04 -1659.05,1659.04l-3700.13 0 0 -218.32c0,-1160.61 0,-2321.2 0,-3481.81 0,-912.9 746.15,-1659.05 1659.05,-1659.05 912.89,0 1659.04,746.15 1659.04,1659.05l0 382.04z"/><path class="fil0" d="M5352.04 5191.47l282.61 0 99.43 0c792.4,0 1440.73,-648.32 1440.73,-1440.72 0,-792.4 -648.33,-1440.73 -1440.73,-1440.73l-99.43 0 -282.61 0 -218.32 0 0 -600.36c0,-792.4 -648.33,-1440.73 -1440.72,-1440.73 -792.4,0 -1440.73,648.34 -1440.73,1440.73 0,1160.61 0,2321.2 0,3481.81l2785.75 0 95.7 0 218.32 0z"/></g></g></svg>